<svg height="512" viewBox="0 0 60 60" width="512" xmlns="http://www.w3.org/2000/svg"><g id="Page-1" fill="none" fill-rule="evenodd"><g id="023---Books" fill-rule="nonzero"><path id="Shape" d="m17 12v29h-16v-29c0-.5522847.44771525-1 1-1h14c.5522847 0 1 .4477153 1 1z" fill="#60a917"/><path id="Shape" d="m16 11h-3c.5522847 0 1 .4477153 1 1v29h3v-29c0-.5522847-.4477153-1-1-1z" fill="#549414"/><path id="Shape" d="m17 49v9c0 .5522847-.4477153 1-1 1h-14c-.55228475 0-1-.4477153-1-1v-9z" fill="#60a917"/><path id="Shape" d="m14 49v9c0 .5522847-.4477153 1-1 1h3c.5522847 0 1-.4477153 1-1v-9z" fill="#549414"/><path id="Shape" d="m30 51v7c0 .5522847-.4477153 1-1 1h-11c-.5522847 0-1-.4477153-1-1v-7z" fill="#02a9f4"/><path id="Shape" d="m27 51v7c0 .5522847-.4477153 1-1 1h3c.5522847 0 1-.4477153 1-1v-7z" fill="#0377bc"/><path id="Rectangle-path" d="m17 13h13v34h-13z" fill="#02a9f4"/><path id="Rectangle-path" d="m27 13h3v34h-3z" fill="#0377bc"/><path id="Shape" d="m30 2v7h-13v-7c0-.55228475.4477153-1 1-1h11c.5522847 0 1 .44771525 1 1z" fill="#02a9f4"/><path id="Shape" d="m29 1h-3c.5522847 0 1 .44771525 1 1v7h3v-7c0-.55228475-.4477153-1-1-1z" fill="#0377bc"/><rect id="Rectangle-path" fill="#ef314c" height="32" rx="1" width="18" x="30" y="27"/><path id="Shape" d="m47 27h-3c.5522847 0 1 .4477153 1 1v30c0 .5522847-.4477153 1-1 1h3c.5522847 0 1-.4477153 1-1v-30c0-.5522847-.4477153-1-1-1z" fill="#bb193b"/><path id="Shape" d="m59 52v6c0 .5522847-.4477153 1-1 1h-9c-.5522847 0-1-.4477153-1-1v-6z" fill="#9d27b0"/><path id="Shape" d="m56 52v6c0 .5522847-.4477153 1-1 1h3c.5522847 0 1-.4477153 1-1v-6z" fill="#6a1b9a"/><path id="Rectangle-path" d="m48 44h11v4h-11z" fill="#ffe0b2"/><path id="Rectangle-path" d="m56 44h3v4h-3z" fill="#dfc49c"/><path id="Shape" d="m59 4v34h-11v-34c0-.55228475.4477153-1 1-1h9c.5522847 0 1 .44771525 1 1z" fill="#9d27b0"/><path id="Shape" d="m58 3h-3c.5522847 0 1 .44771525 1 1v34h3v-34c0-.55228475-.4477153-1-1-1z" fill="#6a1b9a"/><path id="Rectangle-path" d="m1 41h16v8h-16z" fill="#ffe0b2"/><path id="Rectangle-path" d="m14 41h3v8h-3z" fill="#dfc49c"/><path id="Rectangle-path" d="m17 9h13v4h-13z" fill="#ffe0b2"/><path id="Rectangle-path" d="m27 9h3v4h-3z" fill="#dfc49c"/><path id="Rectangle-path" d="m17 47h13v4h-13z" fill="#ffe0b2"/><path id="Rectangle-path" d="m27 47h3v4h-3z" fill="#dfc49c"/><rect id="Rectangle-path" fill="#ffe0b2" height="6" rx="1" width="10" x="34" y="33"/><path id="Rectangle-path" d="m48 38h11v6h-11z" fill="#f5f5f5"/><path id="Rectangle-path" d="m56 38h3v6h-3z" fill="#cfd8dc"/><path id="Rectangle-path" d="m48 48h11v4h-11z" fill="#ffe0b2"/><path id="Rectangle-path" d="m56 48h3v4h-3z" fill="#dfc49c"/><g fill="#000"><path id="Shape" d="m58 2h-9c-1.1045695 0-2 .8954305-2 2v22h-16v-24c0-1.1045695-.8954305-2-2-2h-11c-1.1045695 0-2 .8954305-2 2v8h-14c-1.1045695 0-2 .8954305-2 2v46c0 1.1045695.8954305 2 2 2h14c.3521367-.0019998.6973555-.0979706 1-.278.3026445.1800294.6478633.2760002 1 .278h11c.3521367-.0019998.6973555-.0979706 1-.278.3026445.1800294.6478633.2760002 1 .278h16c.3521367-.0019998.6973555-.0979706 1-.278.3026445.1800294.6478633.2760002 1 .278h9c1.1045695 0 2-.8954305 2-2v-54c0-1.1045695-.8954305-2-2-2zm-9 37h9v4h-9zm0 10h9v2h-9zm0-2v-2h9v2zm0-43h9v33h-9zm-47 38h14v6h-14zm16-32h11v2h-11zm11 4v32h-11v-32zm-11 35v-1h11v2h-11zm11-47v6h-11v-6zm-13 10v28h-14v-28zm-14 46v-8h14v8zm16 0v-6h11v6zm13 0v-30h16v30zm18 0v-5h9v5z"/><path id="Shape" d="m13 52h-8c-.55228475 0-1 .4477153-1 1s.44771525 1 1 1h8c.5522847 0 1-.4477153 1-1s-.4477153-1-1-1z"/><path id="Shape" d="m5 38h8c.5522847 0 1-.4477153 1-1s-.4477153-1-1-1h-8c-.55228475 0-1 .4477153-1 1s.44771525 1 1 1z"/><path id="Shape" d="m7 34h4c.5522847 0 1-.4477153 1-1s-.4477153-1-1-1h-4c-.55228475 0-1 .4477153-1 1s.44771525 1 1 1z"/><path id="Shape" d="m21 37c.5522847 0 1-.4477153 1-1v-19c0-.5522847-.4477153-1-1-1s-1 .4477153-1 1v19c0 .5522847.4477153 1 1 1z"/><path id="Shape" d="m21 44c.5522847 0 1-.4477153 1-1v-3c0-.5522847-.4477153-1-1-1s-1 .4477153-1 1v3c0 .5522847.4477153 1 1 1z"/><path id="Shape" d="m26 44c.5522847 0 1-.4477153 1-1v-26c0-.5522847-.4477153-1-1-1s-1 .4477153-1 1v26c0 .5522847.4477153 1 1 1z"/><path id="Shape" d="m43 32h-8c-1.1045695 0-2 .8954305-2 2v4c0 1.1045695.8954305 2 2 2h8c1.1045695 0 2-.8954305 2-2v-4c0-1.1045695-.8954305-2-2-2zm-8 6v-4h8v4z"/><path id="Shape" d="m44 44h-10c-.5522847 0-1 .4477153-1 1s.4477153 1 1 1h10c.5522847 0 1-.4477153 1-1s-.4477153-1-1-1z"/><path id="Shape" d="m43 48h-8c-.5522847 0-1 .4477153-1 1s.4477153 1 1 1h8c.5522847 0 1-.4477153 1-1s-.4477153-1-1-1z"/><path id="Shape" d="m53 27c.5522847 0 1-.4477153 1-1v-19c0-.55228475-.4477153-1-1-1s-1 .44771525-1 1v19c0 .5522847.4477153 1 1 1z"/><path id="Shape" d="m53 35c.5522847 0 1-.4477153 1-1v-4c0-.5522847-.4477153-1-1-1s-1 .4477153-1 1v4c0 .5522847.4477153 1 1 1z"/></g></g></g></svg>