<?xml version="1.0" encoding="iso-8859-1"?>
<!-- Generator: Adobe Illustrator 19.0.0, SVG Export Plug-In . SVG Version: 6.00 Build 0)  -->
<svg version="1.1" id="Capa_1" xmlns="http://www.w3.org/2000/svg" xmlns:xlink="http://www.w3.org/1999/xlink" x="0px" y="0px"
	 viewBox="0 0 512 512" style="enable-background:new 0 0 512 512;" xml:space="preserve">
<path style="fill:#E4EAF8;" d="M342.138,28.54H30.008c-3.314,0-6,2.687-6,6v183.91v87.911v172.033c0,3.314,2.686,6,6,6h312.13
	c3.314,0,6-2.686,6-6V306.362v-87.911V34.542C348.138,31.227,345.451,28.54,342.138,28.54z"/>
<path style="fill:#D8DCE5;" d="M44.008,478.395V306.362v-87.911V34.542c0-3.313,2.686-6,6-6H30.008c-3.314,0-6,2.687-6,6v183.91
	v87.911v172.033c0,3.314,2.686,6,6,6h20.001C46.695,484.395,44.008,481.709,44.008,478.395z"/>
<rect x="210.416" y="229.484" transform="matrix(-0.7071 0.7071 -0.7071 -0.7071 781.6791 197.3491)" style="fill:#FFC850;" width="279.103" height="62.163"/>
<rect x="324.737" y="106.915" transform="matrix(-0.7071 -0.7071 0.7071 -0.7071 399.0967 658.2444)" style="fill:#E1A546;" width="22.277" height="279.103"/>
<path style="fill:#F0A479;" d="M273.276,381.224l-72.185,36.829c-5.519,2.816-11.416-3.08-8.599-8.599l36.829-72.185
	L273.276,381.224z"/>
<path style="fill:#EA976E;" d="M244.206,352.155l-14.886-14.886l-36.829,72.185c-2.816,5.519,3.08,11.416,8.599,8.599l12.835-6.548
	L244.206,352.155z"/>
<path style="fill:#707487;" d="M480.493,111.214l18.838,18.838c6.907,6.907,6.907,18.21,0,25.117l-30.699,30.699l-43.955-43.955
	l30.699-30.699C462.283,104.306,473.586,104.306,480.493,111.214z"/>
<path style="fill:#676A77;" d="M474.499,123.636c3.385-3.384,7.544-5.536,11.919-6.498l-5.924-5.924
	c-6.907-6.907-18.21-6.907-25.117,0l-30.699,30.699l15.773,15.773L474.499,123.636z"/>
<path style="fill:#707487;" d="M241.86,397.252l-40.77,20.801c-5.519,2.816-11.415-3.08-8.599-8.599l20.801-40.77L241.86,397.252z"
	/>
<path style="fill:#676A77;" d="M211.608,412.687l2.319-1.183l14.252-27.935l-14.886-14.886l-7.38,14.466l-13.421,26.304
	c-0.704,1.38-0.864,2.783-0.62,4.068c0.729,3.854,5.08,6.643,9.219,4.531L211.608,412.687z"/>
<path d="M248.097,155.292c4.142,0,7.5-3.358,7.5-7.5s-3.358-7.5-7.5-7.5h-99.128c-4.142,0-7.5,3.358-7.5,7.5s3.358,7.5,7.5,7.5
	H248.097z"/>
<path d="M95.463,201.896c0,4.142,3.358,7.5,7.5,7.5h191.137c4.142,0,7.5-3.358,7.5-7.5s-3.358-7.5-7.5-7.5H102.964
	C98.821,194.395,95.463,197.753,95.463,201.896z"/>
<path d="M102.964,263.5h126.342c4.142,0,7.5-3.358,7.5-7.5c0-4.142-3.358-7.5-7.5-7.5H102.964c-4.142,0-7.5,3.358-7.5,7.5
	C95.463,260.142,98.821,263.5,102.964,263.5z"/>
<path d="M195.038,310.104c0-4.142-3.358-7.5-7.5-7.5h-84.574c-4.142,0-7.5,3.358-7.5,7.5s3.358,7.5,7.5,7.5h84.574
	C191.679,317.604,195.038,314.246,195.038,310.104z"/>
<path d="M157.937,356.707h-54.973c-4.142,0-7.5,3.358-7.5,7.5s3.358,7.5,7.5,7.5h54.973c4.142,0,7.5-3.358,7.5-7.5
	S162.079,356.707,157.937,356.707z"/>
<path d="M157.937,410.811h-54.973c-4.142,0-7.5,3.358-7.5,7.5s3.358,7.5,7.5,7.5h54.973c4.142,0,7.5-3.358,7.5-7.5
	S162.079,410.811,157.937,410.811z"/>
<path d="M504.62,124.279l-18.838-18.838c-4.789-4.789-11.147-7.377-17.862-7.377l0,0l0,0c-6.717,0-13.075,2.59-17.862,7.377
	l-94.434,94.434V34.072c0-7.444-6.056-13.501-13.501-13.501H29.993c-7.444,0-13.501,6.056-13.501,13.501v52.115H7.5
	c-4.142,0-7.5,3.358-7.5,7.5s3.358,7.5,7.5,7.5h8.991v39.103H7.5c-4.142,0-7.5,3.358-7.5,7.5s3.358,7.5,7.5,7.5h8.991v39.103H7.5
	c-4.142,0-7.5,3.358-7.5,7.5s3.358,7.5,7.5,7.5h8.991v39.103H7.5c-4.142,0-7.5,3.358-7.5,7.5c0,4.142,3.358,7.5,7.5,7.5h8.991
	v39.103H7.5c-4.142,0-7.5,3.358-7.5,7.5s3.358,7.5,7.5,7.5h8.991v39.103H7.5c-4.142,0-7.5,3.358-7.5,7.5s3.358,7.5,7.5,7.5h8.991
	v39.103H7.5c-4.142,0-7.5,3.358-7.5,7.5s3.358,7.5,7.5,7.5h8.991v52.115c0,7.444,6.056,13.501,13.501,13.501h138.564
	c4.142,0,7.5-3.358,7.5-7.5c0-4.142-3.358-7.5-7.5-7.5H31.493v-50.615h10.26c4.142,0,7.5-3.358,7.5-7.5s-3.358-7.5-7.5-7.5h-10.26
	v-39.103h10.26c4.142,0,7.5-3.358,7.5-7.5s-3.358-7.5-7.5-7.5h-10.26v-39.103h10.26c4.142,0,7.5-3.358,7.5-7.5s-3.358-7.5-7.5-7.5
	h-10.26V263.5h10.26c4.142,0,7.5-3.358,7.5-7.5c0-4.142-3.358-7.5-7.5-7.5h-10.26v-39.103h10.26c4.142,0,7.5-3.358,7.5-7.5
	s-3.358-7.5-7.5-7.5h-10.26v-39.103h10.26c4.142,0,7.5-3.358,7.5-7.5s-3.358-7.5-7.5-7.5h-10.26v-39.103h10.26
	c4.142,0,7.5-3.358,7.5-7.5s-3.358-7.5-7.5-7.5h-10.26V35.573h309.13v179.304l-116.62,116.62c-0.518,0.519-1.001,1.165-1.368,1.879
	c-0.003,0.006-0.006,0.01-0.009,0.016l-36.83,72.186l0,0v0.001c-0.007,0.013-0.011,0.026-0.018,0.039
	c-2.53,4.997-1.814,10.911,1.709,15.146c4.166,4.977,11.14,6.491,16.999,3.503l15.566-7.941l56.619-28.888
	c0.007-0.004,0.014-0.009,0.021-0.012c0.716-0.368,1.386-0.877,1.873-1.365l62.058-62.058v152.425H203.558
	c-4.142,0-7.5,3.358-7.5,7.5c0,4.142,3.358,7.5,7.5,7.5h138.565c7.444,0,13.501-6.056,13.501-13.501V309l29.085-29.085
	c2.929-2.929,2.929-7.678,0-10.607c-2.929-2.929-7.678-2.929-10.607,0L273.261,370.149l-33.348-33.348
	c8.991-8.99,175.951-175.951,184.749-184.749L458.01,185.4l-59.135,59.134c-2.929,2.929-2.929,7.678,0,10.607
	c2.929,2.93,7.678,2.929,10.607,0l64.437-64.437c0.001,0,0.001-0.001,0.002-0.001l30.699-30.699
	C514.476,150.148,514.445,134.104,504.62,124.279z M200.711,409.351l14.559-28.536l13.977,13.977L200.711,409.351z M222.436,366.768
	c7.567-14.833,5.07-9.938,8.861-17.368l29.364,29.364l-17.368,8.861L222.436,366.768z M435.269,141.444l25.395-25.396
	c4-4,10.511-3.999,14.51,0l18.838,18.838c1.882,1.882,2.983,4.443,2.983,7.255c0,2.675-1.012,5.283-2.983,7.255l-25.395,25.395
	L435.269,141.444z"/>
<g>
</g>
<g>
</g>
<g>
</g>
<g>
</g>
<g>
</g>
<g>
</g>
<g>
</g>
<g>
</g>
<g>
</g>
<g>
</g>
<g>
</g>
<g>
</g>
<g>
</g>
<g>
</g>
<g>
</g>
</svg>
