<?xml version="1.0" encoding="iso-8859-1"?>
<!-- Generator: Adobe Illustrator 19.0.0, SVG Export Plug-In . SVG Version: 6.00 Build 0)  -->
<svg version="1.1" id="Capa_1" xmlns="http://www.w3.org/2000/svg" xmlns:xlink="http://www.w3.org/1999/xlink" x="0px" y="0px"
	 viewBox="0 0 512.001 512.001" style="enable-background:new 0 0 512.001 512.001;" xml:space="preserve">
<path style="fill:#E4EAF8;" d="M360.018,71.345H89.707v95.684h270.31c6.6,0,12.001-5.4,12.001-12.001V83.346
	C372.019,76.746,366.618,71.345,360.018,71.345z"/>
<path style="fill:#D8DCE5;" d="M360.018,147.028H89.707v20.001h270.31c6.6,0,12.001-5.4,12.001-12.001v-20.001
	C372.019,141.628,366.618,147.028,360.018,147.028z"/>
<path style="fill:#00C3FF;" d="M93.009,71.345H21.185c-7.518,0-13.67,6.151-13.67,13.67v68.344c0,7.518,6.151,13.67,13.67,13.67
	h71.823V71.345z"/>
<path style="fill:#06B0F2;" d="M7.515,133.334v20.025c0,7.518,6.151,13.67,13.67,13.67h71.823v-20.025H21.185
	C13.667,147.004,7.515,140.853,7.515,133.334z"/>
<path style="fill:#707487;" d="M488.751,128.587l-83.635-25.198c-2.328-0.702-4.503,1.464-3.802,3.792
	c7.965,26.439,17.272,57.331,25.187,83.601c0.42,1.393,2.318,1.569,2.99,0.279l12.324-23.688c0.772-1.485,2.765-1.792,3.948-0.608
	l38.206,38.206c1.603,1.603,4.203,1.603,5.806,0l13.828-13.828c1.214-1.214,1.214-3.182,0-4.396l-39.508-39.508
	c-0.888-0.888-0.658-2.383,0.456-2.963l24.475-12.734C490.304,130.88,490.128,129.002,488.751,128.587z"/>
<path style="fill:#5B5D6E;" d="M426.075,109.705l-20.959-6.314c-2.328-0.702-4.503,1.464-3.802,3.792
	c7.965,26.439,17.272,57.331,25.187,83.601c0.419,1.393,2.318,1.569,2.99,0.279l12.324-23.688c0.291-0.56,0.756-0.951,1.285-1.159
	C437.408,147.32,431.462,127.586,426.075,109.705z"/>
<path style="fill:#E4EAF8;" d="M360.018,208.627H89.707v95.684h270.31c6.6,0,12.001-5.4,12.001-12.001v-71.682
	C372.019,214.027,366.618,208.627,360.018,208.627z"/>
<path style="fill:#D8DCE5;" d="M360.018,284.309H89.707v20.001h270.31c6.6,0,12.001-5.4,12.001-12.001v-20.001
	C372.019,278.909,366.618,284.309,360.018,284.309z"/>
<path style="fill:#00C3FF;" d="M93.009,208.627H21.185c-7.518,0-13.67,6.151-13.67,13.67v68.344c0,7.518,6.151,13.67,13.67,13.67
	h71.823V208.627z"/>
<path style="fill:#06B0F2;" d="M7.515,270.615v20.025c0,7.518,6.151,13.67,13.67,13.67h71.823v-20.025H21.185
	C13.667,284.285,7.515,278.134,7.515,270.615z"/>
<path style="fill:#E4EAF8;" d="M360.018,345.908H89.707v95.684h270.31c6.6,0,12.001-5.4,12.001-12.001v-71.682
	C372.019,351.308,366.618,345.908,360.018,345.908z"/>
<path style="fill:#D8DCE5;" d="M360.018,421.591H89.707v20.001h270.31c6.6,0,12.001-5.4,12.001-12.001V409.59
	C372.019,416.19,366.618,421.591,360.018,421.591z"/>
<path style="fill:#00C3FF;" d="M93.009,345.908H21.185c-7.518,0-13.67,6.151-13.67,13.67v68.344c0,7.518,6.151,13.67,13.67,13.67
	h71.823V345.908z"/>
<path style="fill:#06B0F2;" d="M7.515,407.897v20.025c0,7.518,6.151,13.67,13.67,13.67h71.823v-20.025H21.185
	C13.667,421.567,7.515,415.415,7.515,407.897z"/>
<path d="M360.003,63.377c-9.31,0-332.962,0-338.833,0c-0.003,0-0.006,0-0.01,0h-1.659C8.749,63.377,0,72.124,0,82.878v1.669v68.343
	v1.669c0,10.753,8.749,19.501,19.501,19.501h1.669c7.227,0,331.772,0,338.833,0c10.753,0,19.501-8.749,19.501-19.501V82.878
	C379.504,72.124,370.755,63.377,360.003,63.377z M21.17,159.06c-3.401,0-6.169-2.768-6.169-6.169V84.547
	c0-3.399,2.762-6.164,6.159-6.169h64.332v80.683L21.17,159.06L21.17,159.06z M364.503,154.559c0,2.439-2.061,4.5-4.5,4.5H100.494
	V78.378h259.509c2.439,0,4.5,2.061,4.5,4.5L364.503,154.559L364.503,154.559z"/>
<path d="M328.038,95.287H132.863c-4.142,0-7.5,3.358-7.5,7.5s3.358,7.5,7.5,7.5h195.174c4.142,0,7.5-3.358,7.5-7.5
	S332.18,95.287,328.038,95.287z"/>
<path d="M328.038,127.183H132.863c-4.142,0-7.5,3.358-7.5,7.5s3.358,7.5,7.5,7.5h195.174c4.142,0,7.5-3.358,7.5-7.5
	S332.18,127.183,328.038,127.183z"/>
<path d="M328.038,232.552H132.863c-4.142,0-7.5,3.358-7.5,7.5c0,4.142,3.358,7.5,7.5,7.5h195.174c4.142,0,7.5-3.358,7.5-7.5
	C335.537,235.91,332.18,232.552,328.038,232.552z"/>
<path d="M328.038,264.448H132.863c-4.142,0-7.5,3.358-7.5,7.5s3.358,7.5,7.5,7.5h195.174c4.142,0,7.5-3.358,7.5-7.5
	S332.18,264.448,328.038,264.448z"/>
<path d="M132.863,384.834h195.174c4.142,0,7.5-3.358,7.5-7.5s-3.358-7.5-7.5-7.5H132.863c-4.142,0-7.5,3.358-7.5,7.5
	S128.721,384.834,132.863,384.834z"/>
<path d="M132.863,416.73h195.174c4.142,0,7.5-3.358,7.5-7.5s-3.358-7.5-7.5-7.5H132.863c-4.142,0-7.5,3.358-7.5,7.5
	S128.721,416.73,132.863,416.73z"/>
<path d="M63.29,103.881l-16.043,16.043l-7.764-7.764c-2.929-2.929-7.678-2.929-10.607,0c-2.929,2.929-2.929,7.678,0,10.607
	l13.068,13.068c1.464,1.465,3.384,2.197,5.303,2.197c1.919,0,3.839-0.732,5.303-2.197l21.346-21.346
	c2.929-2.929,2.929-7.678,0-10.607C70.968,100.952,66.219,100.952,63.29,103.881z"/>
<path d="M41.944,271.976c1.464,1.464,3.384,2.197,5.303,2.197s3.839-0.732,5.303-2.197l21.346-21.346
	c2.929-2.929,2.929-7.678,0-10.607c-2.929-2.929-7.678-2.929-10.607,0l-16.043,16.043l-7.764-7.764
	c-2.929-2.929-7.678-2.929-10.607,0c-2.929,2.929-2.929,7.678,0,10.607L41.944,271.976z"/>
<path d="M41.944,409.258c1.464,1.464,3.384,2.197,5.303,2.197s3.839-0.732,5.303-2.197l21.346-21.346
	c2.929-2.929,2.929-7.678,0-10.607c-2.929-2.929-7.678-2.929-10.607,0l-16.043,16.043l-7.764-7.764
	c-2.929-2.929-7.678-2.929-10.607,0c-2.929,2.929-2.929,7.678,0,10.607L41.944,409.258z"/>
<path d="M508.892,180.977l-34.065-34.066l17.647-9.182c3.302-1.717,5.21-5.221,4.863-8.927c-0.347-3.705-2.874-6.792-6.437-7.865
	L407.264,95.74c-3.732-1.123-7.755-0.109-10.508,2.643c-2.75,2.75-3.76,6.771-2.638,10.496l25.187,83.601
	c1.075,3.569,4.167,6.101,7.879,6.45c3.714,0.347,7.224-1.563,8.946-4.872l9.162-17.609l33.36,33.36
	c2.192,2.192,5.106,3.4,8.207,3.4c3.1,0,6.015-1.207,8.207-3.399l13.827-13.827c2.004-2.003,3.108-4.668,3.108-7.502
	C512,185.644,510.896,182.979,508.892,180.977z M486.571,135.3h0.001c-0.004-0.001-0.008-0.002-0.013-0.004L486.571,135.3z
	 M486.857,196.8l-35.806-35.806c-1.88-1.88-4.441-2.921-7.067-2.921c-0.501,0-1.005,0.038-1.507,0.115
	c-3.129,0.482-5.871,2.447-7.332,5.256l-5.65,10.86l-18.622-61.811l61.811,18.622l-11.61,6.04c-2.634,1.371-4.477,3.942-4.929,6.878
	c-0.452,2.935,0.532,5.941,2.632,8.041l36.402,36.402L486.857,196.8z"/>
<path d="M360.003,337.939c-9.31,0-332.962,0-338.833,0c-0.003,0-0.006,0-0.01,0h-1.659C8.749,337.939,0,346.688,0,357.441v1.669
	v68.344v1.669c0,10.753,8.749,19.501,19.501,19.501h1.669c7.591,0,165.844,0,173.118,0c4.142,0,7.5-3.358,7.5-7.5
	c0-4.142-3.358-7.5-7.5-7.5h-93.795V352.94h259.509c2.439,0,4.5,2.061,4.5,4.5v71.682c0,2.439-2.061,4.5-4.5,4.5H229.291
	c-4.142,0-7.5,3.358-7.5,7.5c0,4.142,3.358,7.5,7.5,7.5h130.712c10.753,0,19.501-8.749,19.501-19.501v-71.682
	C379.504,346.688,370.755,337.939,360.003,337.939z M85.493,433.623H21.17c-3.401,0-6.169-2.768-6.169-6.169V359.11
	c0-3.399,2.762-6.164,6.159-6.169h64.332L85.493,433.623L85.493,433.623z"/>
<path d="M360.003,200.658c-7.067,0-331.607,0-338.833,0h-1.669C8.749,200.658,0,209.407,0,220.159v1.669v68.343v1.669
	c0,10.753,8.749,19.501,19.501,19.501h340.502c10.753,0,19.501-8.749,19.501-19.501v-19.34c0-4.142-3.358-7.5-7.5-7.5
	s-7.5,3.358-7.5,7.5v19.34c0,2.439-2.061,4.5-4.5,4.5H100.494v-80.683h259.509c2.439,0,4.5,2.061,4.5,4.5v17.34
	c0,4.142,3.358,7.5,7.5,7.5s7.5-3.358,7.5-7.5v-17.34C379.504,209.406,370.755,200.658,360.003,200.658z M85.493,296.341H21.17
	c-3.401,0-6.169-2.768-6.169-6.169v-68.343c0-3.402,2.768-6.169,6.169-6.169h64.323V296.341z"/>
<g>
</g>
<g>
</g>
<g>
</g>
<g>
</g>
<g>
</g>
<g>
</g>
<g>
</g>
<g>
</g>
<g>
</g>
<g>
</g>
<g>
</g>
<g>
</g>
<g>
</g>
<g>
</g>
<g>
</g>
</svg>
