<?xml version="1.0" encoding="iso-8859-1"?>
<!-- Generator: Adobe Illustrator 19.0.0, SVG Export Plug-In . SVG Version: 6.00 Build 0)  -->
<svg version="1.1" id="Capa_1" xmlns="http://www.w3.org/2000/svg" xmlns:xlink="http://www.w3.org/1999/xlink" x="0px" y="0px"
	 viewBox="0 0 512.001 512.001" style="enable-background:new 0 0 512.001 512.001;" xml:space="preserve">
<path style="fill:#E4EAF8;" d="M372.685,129.915h-68.777l0,0c0,67.922-55.257,123.18-123.179,123.18v242.33
	c0,5.238,4.287,9.526,9.526,9.526h254.703c5.239,0,9.527-4.287,9.527-9.526V211.714L372.685,129.915z"/>
<g>
	<path style="fill:#D8DCE5;" d="M200.778,251.455c-6.527,1.073-13.223,1.64-20.05,1.64v242.33c0,5.238,4.287,9.526,9.526,9.526
		h10.523V251.455H200.778z"/>
	<path style="fill:#D8DCE5;" d="M382.211,211.713h72.273l-81.799-81.799v72.273C372.685,207.427,376.972,211.713,382.211,211.713z"
		/>
</g>
<path style="fill:#C3C8D1;" d="M392.735,202.188v-52.223l-20.05-20.05v72.273c0,5.239,4.287,9.526,9.527,9.526h20.05
	C397.022,211.713,392.735,207.427,392.735,202.188z"/>
<path style="fill:#FFC850;" d="M180.727,6.485c-68.06,0-123.431,55.371-123.431,123.431s55.371,123.431,123.431,123.431
	s123.431-55.372,123.431-123.432S248.787,6.485,180.727,6.485z"/>
<path style="fill:#E1A546;" d="M75.892,129.915c0-64.932,50.399-118.312,114.133-123.082c-3.07-0.23-6.17-0.349-9.298-0.349
	c-68.06,0-123.431,55.371-123.431,123.431s55.371,123.431,123.431,123.431c3.128,0,6.229-0.119,9.298-0.349
	C126.291,248.228,75.892,194.847,75.892,129.915z"/>
<path style="fill:#E4EAF8;" d="M180.728,32.6c-53.66,0-97.315,43.655-97.315,97.315s43.655,97.315,97.315,97.315
	s97.315-43.655,97.315-97.315S234.387,32.6,180.728,32.6z"/>
<path style="fill:#D8DCE5;" d="M111.656,129.915c0-48.864,36.203-89.426,83.193-96.287c-4.612-0.674-9.326-1.029-14.122-1.029
	c-53.66,0-97.315,43.655-97.315,97.315s43.655,97.315,97.315,97.315c4.796,0,9.51-0.355,14.122-1.029
	C147.858,219.342,111.656,178.779,111.656,129.915z"/>
<circle style="fill:#707487;" cx="180.733" cy="129.915" r="17.944"/>
<path style="fill:#676A77;" d="M182.834,129.915c0-6.197,3.142-11.659,7.918-14.883c-2.862-1.932-6.312-3.06-10.025-3.06
	c-9.91,0-17.943,8.034-17.943,17.944s8.033,17.944,17.943,17.944c3.713,0,7.163-1.128,10.025-3.06
	C185.976,141.575,182.834,136.112,182.834,129.915z"/>
<path d="M403.806,285.736h-82.335c-4.152,0-7.519,3.366-7.519,7.519c0,4.152,3.366,7.519,7.519,7.519h82.335
	c4.152,0,7.519-3.366,7.519-7.519C411.325,289.102,407.958,285.736,403.806,285.736z"/>
<path d="M403.806,333.801h-82.335c-4.152,0-7.519,3.366-7.519,7.519c0,4.152,3.366,7.519,7.519,7.519h82.335
	c4.152,0,7.519-3.366,7.519-7.519C411.325,337.167,407.958,333.801,403.806,333.801z"/>
<path d="M403.806,381.865h-82.335c-4.152,0-7.519,3.366-7.519,7.519c0,4.152,3.366,7.519,7.519,7.519h82.335
	c4.152,0,7.519-3.366,7.519-7.519C411.325,385.232,407.958,381.865,403.806,381.865z"/>
<path d="M403.806,429.93h-82.335c-4.152,0-7.519,3.366-7.519,7.519c0,4.152,3.366,7.519,7.519,7.519h82.335
	c4.152,0,7.519-3.366,7.519-7.519C411.325,433.297,407.958,429.93,403.806,429.93z"/>
<path d="M289.676,266.347c-2.936-2.936-7.697-2.936-10.633,0l-24.094,24.094l-12.689-12.689c-2.936-2.936-7.697-2.936-10.633,0
	c-2.936,2.936-2.936,7.697,0,10.633l18.005,18.005c1.468,1.468,3.392,2.202,5.316,2.202c1.924,0,3.849-0.734,5.316-2.202
	l29.411-29.411C292.614,274.043,292.614,269.283,289.676,266.347z"/>
<path d="M289.676,316.707c-2.936-2.936-7.697-2.936-10.633,0l-24.094,24.094l-12.689-12.689c-2.936-2.936-7.697-2.936-10.633,0
	c-2.936,2.936-2.936,7.697,0,10.633l18.005,18.005c1.41,1.411,3.322,2.203,5.316,2.203c1.994,0,3.907-0.792,5.316-2.203
	l29.411-29.411C292.614,324.403,292.614,319.642,289.676,316.707z"/>
<path d="M289.676,367.067c-2.936-2.936-7.697-2.936-10.633,0l-24.094,24.094l-12.689-12.689c-2.936-2.936-7.697-2.936-10.633,0
	c-2.936,2.936-2.936,7.697,0,10.633l18.005,18.005c1.468,1.468,3.392,2.203,5.316,2.203c1.924,0,3.849-0.734,5.316-2.203
	l29.411-29.411C292.614,374.764,292.614,370.004,289.676,367.067z"/>
<path d="M279.044,417.427l-24.094,24.094l-12.689-12.689c-2.936-2.936-7.697-2.936-10.633,0c-2.936,2.936-2.936,7.697,0,10.633
	l18.005,18.005c1.468,1.468,3.392,2.203,5.316,2.203c1.924,0,3.849-0.734,5.316-2.203l29.411-29.411
	c2.936-2.936,2.936-7.697,0-10.633C286.741,414.492,281.98,414.492,279.044,417.427z"/>
<path d="M188.231,105.118V69.095c0-4.152-3.366-7.519-7.519-7.519c-4.152,0-7.519,3.366-7.519,7.519v36.022
	c-8.004,2.479-14.331,8.806-16.809,16.809h-25.019c-4.152,0-7.519,3.366-7.519,7.519c0,4.152,3.366,7.519,7.519,7.519h25.019
	c3.215,10.381,12.904,17.943,24.328,17.943c14.04,0,25.462-11.423,25.462-25.462C206.174,118.022,198.612,108.333,188.231,105.118z
	 M180.713,139.871c-5.748,0-10.424-4.677-10.424-10.424c0-5.747,4.677-10.424,10.424-10.424c5.747,0,10.424,4.677,10.424,10.424
	C191.137,135.194,186.461,139.871,180.713,139.871z"/>
<path d="M75.878,129.446c0,57.806,47.029,104.834,104.834,104.834l0,0l0,0l0,0c57.806,0,104.834-47.029,104.834-104.834
	S238.518,24.612,180.713,24.611l0,0l0,0l0,0C122.906,24.611,75.878,71.64,75.878,129.446z M270.191,121.927h-2.294
	c-4.152,0-7.519,3.366-7.519,7.519s3.366,7.519,7.519,7.519h2.294c-3.626,43.529-38.431,78.334-81.96,81.96v-2.294
	c0-4.152-3.366-7.519-7.519-7.519s-7.519,3.366-7.519,7.519v2.294c-43.529-3.626-78.335-38.431-81.961-81.96h2.295
	c4.152,0,7.519-3.366,7.519-7.519c0-4.152-3.366-7.519-7.519-7.519h-2.295c3.626-43.529,38.431-78.334,81.961-81.96v2.294
	c0,4.152,3.366,7.519,7.519,7.519s7.519-3.366,7.519-7.519v-2.294C231.76,43.593,266.565,78.398,270.191,121.927z"/>
<path d="M454.468,355.473c4.152,0,7.519-3.366,7.519-7.519v-136.71c0-1.92-0.751-3.866-2.202-5.316l-81.8-81.8
	c-1.35-1.35-3.303-2.203-5.316-2.203h-61.484C307.572,59.333,260.006,8.77,199.323,0.078c-4.114-0.593-7.92,2.267-8.509,6.377
	c-0.588,4.111,2.267,7.92,6.377,8.509c56.543,8.099,99.183,57.315,99.183,114.482c0,63.791-51.921,115.661-115.661,115.661
	c-63.776,0-115.661-51.885-115.661-115.661c0-57.167,42.64-106.383,99.184-114.482c4.11-0.588,6.965-4.398,6.377-8.509
	c-0.588-4.11-4.397-6.969-8.509-6.377C98.616,9.172,50.014,63.913,50.014,129.446c0,69.544,54.599,126.568,123.18,130.477v235.033
	c0,9.399,7.646,17.045,17.045,17.045h254.703c9.398,0,17.046-7.646,17.046-17.045V383.042c0-4.152-3.366-7.519-7.519-7.519
	c-4.152,0-7.519,3.366-7.519,7.519v111.913c0,1.088-0.919,2.007-2.008,2.007H190.238c-1.088,0-2.007-0.919-2.007-2.007V259.93
	c66.092-3.773,119.195-56.858,122.966-122.967h53.953v64.755c0,9.399,7.646,17.045,17.046,17.045h64.754v129.191
	C446.95,352.107,450.316,355.473,454.468,355.473z M382.197,203.725c-1.089,0-2.008-0.919-2.008-2.007v-54.121l56.128,56.128
	H382.197z"/>
<g>
</g>
<g>
</g>
<g>
</g>
<g>
</g>
<g>
</g>
<g>
</g>
<g>
</g>
<g>
</g>
<g>
</g>
<g>
</g>
<g>
</g>
<g>
</g>
<g>
</g>
<g>
</g>
<g>
</g>
</svg>
