<svg id="Layer_1" enable-background="new 0 0 512 512" height="512" viewBox="0 0 512 512" width="512" xmlns="http://www.w3.org/2000/svg"><path d="m510.954 252.342c-55.259-88.745-150.567-141.727-254.954-141.727-104.389 0-199.698 52.982-254.954 141.727-1.394 2.239-1.394 5.077 0 7.315 55.256 88.746 150.565 141.728 254.954 141.728 104.387 0 199.695-52.982 254.954-141.727 1.395-2.239 1.395-5.077 0-7.316zm-254.954 135.205c-98.137 0-187.86-49.088-240.894-131.547 53.034-82.459 142.757-131.547 240.894-131.547 98.135 0 187.858 49.088 240.894 131.547-53.036 82.459-142.759 131.547-240.894 131.547zm0-245.405c-62.781 0-113.858 51.076-113.858 113.858s51.077 113.858 113.858 113.858 113.858-51.077 113.858-113.858-51.077-113.858-113.858-113.858zm0 213.878c-55.151 0-100.02-44.869-100.02-100.02s44.869-100.02 100.02-100.02 100.02 44.869 100.02 100.02-44.869 100.02-100.02 100.02zm6.919-153.072c0 3.822-3.097 6.919-6.919 6.919-25.437 0-46.133 20.696-46.133 46.133 0 3.822-3.097 6.919-6.919 6.919s-6.919-3.097-6.919-6.919c0-33.067 26.903-59.971 59.971-59.971 3.822 0 6.919 3.097 6.919 6.919z"/></svg>