<?xml version="1.0" encoding="iso-8859-1"?>
<!-- Generator: Adobe Illustrator 19.0.0, SVG Export Plug-In . SVG Version: 6.00 Build 0)  -->
<svg version="1.1" id="Capa_1" xmlns="http://www.w3.org/2000/svg" xmlns:xlink="http://www.w3.org/1999/xlink" x="0px" y="0px"
	 viewBox="0 0 511.999 511.999" style="enable-background:new 0 0 511.999 511.999;" xml:space="preserve">
<path style="fill:#E4EAF8;" d="M410.671,260.161h36.549c5.812,0,10.524-4.712,10.524-10.524v-69.21c0-5.181-4.2-9.381-9.381-9.381
	h-37.711C424.266,199.11,424.272,232.094,410.671,260.161z"/>
<path style="fill:#D8DCE5;" d="M447.221,240.212h-29.353c-1.688,6.829-4.081,13.519-7.196,19.949h36.549
	c5.812,0,10.524-4.712,10.524-10.525v-19.949C457.744,235.5,453.033,240.212,447.221,240.212z"/>
<path style="fill:#E4EAF8;" d="M232.832,171.045H81.069v89.116h151.744C219.213,232.094,219.22,199.11,232.832,171.045z"/>
<path style="fill:#D8DCE5;" d="M81.069,240.212v19.949h151.744c-3.116-6.431-5.509-13.121-7.196-19.949L81.069,240.212
	L81.069,240.212z"/>
<path style="fill:#FF5050;" d="M94.75,171.045H16.862c-5.181,0-9.381,4.2-9.381,9.381v70.244c0,5.242,4.249,9.491,9.491,9.491h77.78
	L94.75,171.045L94.75,171.045z"/>
<path style="fill:#F24646;" d="M7.481,230.722v19.949c0,5.242,4.249,9.491,9.49,9.491h77.78v-19.949h-77.78
	C11.73,240.212,7.481,235.964,7.481,230.722z"/>
<circle style="fill:#707487;" cx="321.739" cy="215.62" r="102.139"/>
<path style="fill:#676A77;" d="M269.466,287.848c-39.889-39.889-39.889-104.563,0-144.453c17.405-17.405,39.528-27.214,62.251-29.43
	c-29.356-2.864-59.716,6.945-82.2,29.43c-39.889,39.889-39.889,104.563,0,144.453c22.485,22.485,52.844,32.294,82.2,29.43
	C308.993,315.062,286.87,305.254,269.466,287.848z"/>
<circle style="fill:#92E3FF;" cx="321.739" cy="215.62" r="66.48"/>
<path style="fill:#69D6F4;" d="M294.684,262.63c-25.961-25.961-25.961-68.052,0-94.013c10.435-10.435,23.479-16.667,37.033-18.713
	c-20.164-3.044-41.456,3.188-56.982,18.713c-25.961,25.961-25.961,68.052,0,94.013c15.525,15.525,36.818,21.757,56.982,18.713
	C318.163,279.297,305.121,273.065,294.684,262.63z"/>
<path style="fill:#FF5050;" d="M501.022,380.102l-14.801,14.801c-4.655,4.655-12.273,4.655-16.928,0l-62.169-62.169
	c-4.655-4.655-4.655-12.273,0-16.928l14.801-14.801c4.655-4.655,12.273-4.655,16.928,0l62.169,62.169
	C505.677,367.829,505.677,375.447,501.022,380.102z"/>
<path style="fill:#F24646;" d="M486.744,382.751l-67.468-67.469c-2.248-2.248-3.4-5.189-3.476-8.152l-8.675,8.675
	c-4.655,4.655-4.655,12.273,0,16.927l62.169,62.169c4.655,4.655,12.273,4.655,16.928,0l8.675-8.675
	C491.933,386.152,488.993,385,486.744,382.751z"/>
<path d="M395.702,215.623c0-19.756-7.693-38.328-21.663-52.297c-28.836-28.837-75.757-28.835-104.593,0
	c-28.836,28.836-28.836,75.757,0,104.593c14.42,14.42,33.355,21.629,52.298,21.628c18.936-0.002,37.879-7.211,52.296-21.628
	C388.008,253.95,395.702,235.377,395.702,215.623z M280.026,257.339c-37.048-37.048-10.701-100.686,41.717-100.686
	c15.107,0,30.215,5.75,41.716,17.252c0,0,0,0,0.001,0c11.143,11.143,17.28,25.959,17.28,41.718c0,15.758-6.137,30.574-17.281,41.717
	C340.457,280.344,303.028,280.343,280.026,257.339z"/>
<path d="M506.313,357.885l-62.169-62.169c-7.585-7.585-19.924-7.585-27.508,0l-2.111,2.111l-10.161-10.161
	c5.454-6.246,10.079-12.968,13.878-20.022h28.978c9.928,0,18.005-8.077,18.005-18.006v-16.578c0-4.131-3.348-7.481-7.481-7.481
	c-4.132,0-7.481,3.349-7.481,7.481v16.578c0,1.679-1.365,3.044-3.043,3.044h-22.321c8.551-23.92,8.546-50.237-0.014-74.154h23.479
	c1.047,0,1.899,0.852,1.899,1.9v17.721c0,4.131,3.348,7.481,7.481,7.481c4.132,0,7.481-3.349,7.481-7.481v-17.721
	c0-9.298-7.564-16.862-16.861-16.862H418.22c-41.198-76.443-151.598-76.746-192.958,0c-10.522,0-197.464,0-208.401,0
	C7.564,163.564,0,171.129,0,180.426l0,0v64.555v0.934c0,11.98,9.746,21.727,21.727,21.727h203.516
	c4.933,9.163,11.255,17.769,18.983,25.496c16.096,16.096,36.425,26.643,58.789,30.501c4.072,0.704,7.942-2.028,8.644-6.1
	c0.702-4.072-2.028-7.941-6.099-8.644c-19.305-3.331-36.854-12.438-50.754-26.337c-36.879-36.88-36.889-96.984,0-133.873
	c36.909-36.909,96.966-36.908,133.872,0c36.774,36.774,37.032,96.842,0,133.873c-13.9,13.9-31.449,23.006-50.753,26.337
	c-4.072,0.702-6.802,4.572-6.099,8.644c0.628,3.641,3.789,6.21,7.363,6.21c0.422,0,0.851-0.036,1.281-0.11
	c19.901-3.434,38.182-12.176,53.311-25.398l10.164,10.164l-2.11,2.11c-3.665,3.665-5.682,8.548-5.682,13.754
	c0,5.206,2.018,10.089,5.682,13.754l62.169,62.169c7.587,7.586,19.925,7.583,27.507,0l14.802-14.8l0,0
	C513.895,377.808,513.895,365.468,506.313,357.885z M22.66,252.68c-4.244,0-7.698-3.453-7.698-7.697v-64.555
	c0-1.047,0.852-1.9,1.9-1.9H87.27v74.153L22.66,252.68L22.66,252.68z M102.232,252.68v-74.154H218.6
	c-8.56,23.918-8.564,50.234-0.014,74.154H102.232z M495.732,374.813l-14.801,14.8c-1.721,1.721-4.627,1.721-6.347,0l-62.169-62.169
	c-1.737-1.737-1.736-4.612,0-6.348l14.801-14.801c1.721-1.721,4.627-1.721,6.347,0l62.169,62.169
	C497.453,370.184,497.453,373.092,495.732,374.813z"/>
<path d="M179.212,208.142h-43.607c-4.131,0-7.481,3.349-7.481,7.481c0,4.131,3.349,7.481,7.481,7.481h43.607
	c4.131,0,7.481-3.349,7.481-7.481C186.693,211.491,183.343,208.142,179.212,208.142z"/>
<path d="M357.291,208.142h-71.097c-4.132,0-7.481,3.349-7.481,7.481c0,4.131,3.348,7.481,7.481,7.481h71.097
	c4.132,0,7.481-3.349,7.481-7.481C364.772,211.491,361.423,208.142,357.291,208.142z"/>
<g>
</g>
<g>
</g>
<g>
</g>
<g>
</g>
<g>
</g>
<g>
</g>
<g>
</g>
<g>
</g>
<g>
</g>
<g>
</g>
<g>
</g>
<g>
</g>
<g>
</g>
<g>
</g>
<g>
</g>
</svg>
