<?xml version="1.0" encoding="iso-8859-1"?>
<!-- Generator: Adobe Illustrator 19.0.0, SVG Export Plug-In . SVG Version: 6.00 Build 0)  -->
<svg version="1.1" id="Capa_1" xmlns="http://www.w3.org/2000/svg" xmlns:xlink="http://www.w3.org/1999/xlink" x="0px" y="0px"
	 viewBox="0 0 512.001 512.001" style="enable-background:new 0 0 512.001 512.001;" xml:space="preserve">
<path style="fill:#00C3FF;" d="M272.016,240.878v-41.09c-0.007-9.681,7.783-17.535,17.466-17.543
	c9.681-0.006,17.537,7.835,17.544,17.517c0.009,10.052,0.007,6.415,0.007,17.036c22.495-22.114,36.452-52.889,36.452-86.927
	c0-67.323-54.576-121.9-121.9-121.9s-121.9,54.577-121.9,121.9c0,67.324,54.576,121.9,121.9,121.9
	C239.572,251.768,256.647,247.871,272.016,240.878z"/>
<path style="fill:#06B0F2;" d="M119.687,129.869c0-63.955,49.254-116.402,111.9-121.489c-3.298-0.268-6.632-0.411-10.001-0.411
	c-67.323,0-121.9,54.576-121.9,121.9s54.576,121.9,121.9,121.9c3.379,0,6.725-0.138,10.035-0.408
	C168.96,246.29,119.687,193.837,119.687,129.869z"/>
<path style="fill:#F0A479;" d="M412.342,312.037c0-9.67-7.839-17.509-17.509-17.509l0,0c-9.67,0-17.509,7.839-17.509,17.509v-3.542
	c0-9.67-7.839-17.509-17.509-17.509l0,0c-9.67,0-17.509,7.839-17.509,17.509v-4.723c0-9.67-7.839-17.509-17.509-17.509l0,0
	c-9.771,0-17.765,7.994-17.765,17.765v16.728l0,0c0-122.139,0.003-108.809-0.007-123.995c-0.007-9.682-7.865-17.523-17.544-17.517
	c-9.683,0.008-17.473,7.863-17.466,17.543v165.506c0,2.181-2.769,3.115-4.091,1.381l-29.208-38.342
	c-14.493-20.289-40.388-2.543-31.839,16.004l34.542,79.047c0.059,0.129,4.998,10.593,12.701,18.22v0.004
	c0.088,0.084,11.151,11.042,11.151,11.042c5.831,5.775,6.89,15.536,6.993,27.239h-0.002c0,11.365-2.539,28.082,16.277,28.082
	c9.338,0,74.078,0,85.002,0c5.448-0.615,13.705-3.741,13.705-17.076c0-0.002-0.01-19.883-0.01-19.898
	c-0.016-25.395,25.134-23.073,25.104-54.655V312.037H412.342C412.342,311.288,412.342,311.288,412.342,312.037z"/>
<g>
	<path style="fill:#EA976E;" d="M292.265,476.886h0.002c-0.102-11.704-1.162-21.463-6.993-27.239c0,0-11.063-10.958-11.151-11.042
		v-0.004c-7.702-7.627-12.642-18.092-12.701-18.22l-34.542-79.047c-4.034-8.752-0.396-17.319,6.09-21.802
		c-14.567-10.13-33.596,5.523-26.092,21.802l34.542,79.047c0.059,0.129,4.998,10.593,12.701,18.22v0.004
		c0.088,0.084,11.151,11.042,11.151,11.042c5.831,5.775,6.891,15.536,6.993,27.239h-0.002c0,11.365-2.54,28.082,16.277,28.082
		c2.762,0,10.372,0,20.001,0C289.725,504.968,292.265,488.251,292.265,476.886z"/>
	<path style="fill:#EA976E;" d="M272.016,362.292c0,2.181-2.769,3.115-4.091,1.381l0,0l0,0l8.94,11.621
		c2.791,3.522,15.153,17.806,15.153-5.557V196.787c-0.004-5.961,2.955-11.223,7.486-14.394h-0.001
		c-2.815-1.962-6.392-3.151-10.021-3.149c-5.446,0.005-10.295,2.492-13.493,6.39c-2.132,2.599-3.531,5.825-3.885,9.361
		c-0.059,0.589-0.089,1.187-0.089,1.792v165.505H272.016z"/>
</g>
<path style="fill:#9BF57D;" d="M214.424,174.549c-3.777,0-7.554-1.441-10.437-4.322l-30.067-30.067
	c-5.763-5.763-5.763-15.109,0-20.872c5.764-5.763,15.108-5.763,20.872,0l19.631,19.631l38.677-38.677
	c5.763-5.763,15.109-5.764,20.872,0c5.763,5.763,5.763,15.109,0,20.872l-49.113,49.113
	C221.979,173.107,218.202,174.549,214.424,174.549z"/>
<g>
	<path style="fill:#EA976E;" d="M392.324,346.498v-51.77c-8.478,1.22-15,8.494-15,17.309v-3.542c0-0.01-0.001-0.019-0.001-0.029
		v38.032c0,4.142,3.358,7.5,7.5,7.5C388.966,353.998,392.324,350.64,392.324,346.498z"/>
	<path style="fill:#EA976E;" d="M314.533,353.998c4.142,0,7.5-3.358,7.5-7.5v-59.997c-8.397,1.326-15,8.542-15,17.271V272.93
		c0,1.001-0.001-5.004-0.001,73.568C307.032,350.64,310.39,353.998,314.533,353.998z"/>
	<path style="fill:#EA976E;" d="M349.806,353.998c4.142,0,7.5-3.358,7.5-7.5v-55.311c-8.478,1.22-14.999,8.494-14.999,17.309v-4.723
		c0-0.011-0.002-0.022-0.002-0.034v42.76C342.305,350.64,345.663,353.998,349.806,353.998z"/>
</g>
<path style="fill:#79DD50;" d="M223.989,170.225l-30.067-30.067c-5.763-5.763-5.763-15.109,0-20.872
	c0.14-0.14,0.292-0.26,0.436-0.394c-5.789-5.35-14.813-5.23-20.437,0.394c-5.763,5.763-5.763,15.109,0,20.872l30.067,30.067
	c2.882,2.882,6.658,4.323,10.437,4.323c3.594,0,7.177-1.32,10.001-3.929C224.281,170.485,224.129,170.365,223.989,170.225z"/>
<path d="M419.828,311.569c0-13.791-11.22-25.009-25.01-25.009c-5.951,0-11.424,2.089-15.722,5.573
	c-4.591-5.563-11.536-9.116-19.295-9.116c-5.688,0-10.939,1.908-15.145,5.119c-4.574-5.978-11.781-9.842-19.873-9.842
	c-3.655,0-7.131,0.789-10.265,2.204v-61.12c18.831-19.469,31.275-44.692,35.118-71.409c0.59-4.1-2.256-7.902-6.356-8.493
	c-4.09-0.586-7.901,2.256-8.492,6.356c-2.6,18.075-9.647,35.386-20.278,50.233c-0.13-13.779-11.471-25.053-25.522-24.78
	c-6.612,0.126-12.668,2.779-17.207,7.344c-4.695,4.722-7.284,11.013-7.28,17.678c0,0.003,0,0.006,0,0.009l0,0v39.154
	c-13.622,5.528-28.041,8.328-42.93,8.328c-63.08,0-114.4-51.319-114.4-114.4S158.491,15.001,221.571,15.001
	c56.514,0,105.189,42.117,113.22,97.966c0.59,4.101,4.401,6.941,8.492,6.356c4.101-0.59,6.946-4.392,6.356-8.492
	c-4.388-30.51-19.65-58.537-42.978-78.917C283.107,11.334,252.887,0,221.571,0c-71.351,0-129.4,58.049-129.4,129.401
	s58.049,129.401,129.401,129.401c14.801,0,29.193-2.458,42.93-7.3v94.85l-19.765-25.947c-10.001-13.909-24.428-14.356-34.313-8.617
	c-9.87,5.731-16.6,18.606-10.403,32.147l34.513,78.983c0.02,0.044,0.039,0.088,0.059,0.132c0.053,0.115,5.334,11.479,13.979,20.158
	c0.093,0.099,0.189,0.195,0.288,0.29c0.385,0.378,11.12,11.012,11.121,11.012c5.005,4.956,4.87,18.323,4.715,25.418
	c-0.184,8.322-0.412,18.678,6.511,25.756c4.101,4.192,9.928,6.318,17.319,6.318h23.161c4.143,0,7.5-3.358,7.5-7.5
	s-3.357-7.5-7.5-7.5h-23.161c-3.204,0-5.423-0.608-6.596-1.807c-2.51-2.566-2.359-9.425-2.237-14.936
	c0.279-12.678-0.202-27.538-9.156-36.406c-8.254-8.175-10.417-10.316-11.01-10.901c-0.047-0.049-0.095-0.097-0.143-0.145
	c-6.455-6.392-10.848-15.369-11.148-15.992l-34.499-78.949c-0.02-0.046-0.041-0.091-0.062-0.137
	c-2.619-5.681,0.383-10.704,4.28-12.967c1.898-1.104,8.569-4.042,14.644,4.461c0.045,0.063,0.09,0.125,0.137,0.186l33.299,43.713
	c1.95,2.56,5.315,3.588,8.365,2.562c3.049-1.029,5.102-3.889,5.102-7.106V240.41v-44.097c-0.004-5.561,4.514-10.033,9.971-10.038
	c0.002,0,0.004,0,0.006,0c5.536,0,10.029,4.504,10.033,10.022c0,2.696,0.008,109.799,0.008,149.671c0,4.142,3.357,7.5,7.5,7.5
	s7.756-3.358,7.756-7.5c0-44.974,0-5.675,0-42.665c0-5.519,4.489-10.009,10.009-10.009s10.009,4.489,10.009,10.009
	c0,4.96,0,38.382,0,42.665c0,4.142,3.357,7.5,7.5,7.5s7.5-3.358,7.5-7.5v-37.941c0-5.519,4.489-10.009,10.009-10.009
	c5.518,0,10.008,4.489,10.008,10.009c0,14.872,0,23.267,0,37.941c0,4.142,3.357,7.5,7.5,7.5c4.143,0,7.5-3.358,7.5-7.5v-34.399
	c0-5.519,4.489-10.009,10.009-10.009s10.009,4.489,10.009,10.009c0,1.739-0.061,19.456,0,101.306
	c0.013,13.617-5.307,19.121-11.467,25.495c-6.396,6.618-13.647,14.12-13.638,29.155l0.01,19.898c0,7.487-3.153,9.101-6.663,9.576
	h-26.38c-4.143,0-7.5,3.358-7.5,7.5s3.357,7.5,7.5,7.5h26.839c0.281,0,0.563-0.016,0.842-0.047
	c12.751-1.44,20.363-10.61,20.363-24.529l-0.01-19.903c-0.006-8.971,3.745-12.852,9.424-18.726
	c6.994-7.236,15.699-16.244,15.681-35.931C419.792,363.909,419.828,317.271,419.828,311.569z"/>
<path d="M247.783,94.468l-33.373,33.374l-14.328-14.328c-8.68-8.681-22.801-8.68-31.48,0c-8.679,8.679-8.679,22.8,0,31.48
	l30.067,30.067c8.7,8.7,22.779,8.701,31.48,0l49.112-49.112c8.698-8.696,8.703-22.779,0.001-31.48
	C270.563,85.768,256.485,85.768,247.783,94.468z M268.655,105.075c2.837,2.837,2.837,7.427,0,10.266l-49.112,49.113
	c-2.837,2.837-7.427,2.837-10.266,0l-30.067-30.068c-2.83-2.83-2.83-7.435,0-10.265c2.829-2.829,7.434-2.83,10.266,0l19.631,19.631
	c2.926,2.927,7.678,2.929,10.607,0l38.676-38.676C261.225,102.239,265.819,102.237,268.655,105.075z"/>
<g>
</g>
<g>
</g>
<g>
</g>
<g>
</g>
<g>
</g>
<g>
</g>
<g>
</g>
<g>
</g>
<g>
</g>
<g>
</g>
<g>
</g>
<g>
</g>
<g>
</g>
<g>
</g>
<g>
</g>
</svg>
