<?xml version="1.0" encoding="iso-8859-1"?>
<!-- Generator: Adobe Illustrator 19.0.0, SVG Export Plug-In . SVG Version: 6.00 Build 0)  -->
<svg version="1.1" id="Capa_1" xmlns="http://www.w3.org/2000/svg" xmlns:xlink="http://www.w3.org/1999/xlink" x="0px" y="0px"
	 viewBox="0 0 512.001 512.001" style="enable-background:new 0 0 512.001 512.001;" xml:space="preserve">
<path style="fill:#FFC850;" d="M228.511,285.548c-22.192-26.974-35.518-61.517-35.518-99.174c0-19.364,3.533-37.9,9.973-55.011
	c-11.913-3.082-24.374-4.803-37.211-4.965C79.763,125.31,8.528,194.763,7.539,280.756c-0.74,64.323,37.407,119.818,92.391,144.455
	c1.819,0.814,2.342,3.153,1.068,4.685l-38.07,45.802c-1.889,2.274-0.489,5.745,2.451,6.052
	c28.047,2.93,137.824,6.661,219.048-99.981c7.283-8.852,13.603-18.525,18.82-28.85C277.723,337.856,251.93,316.297,228.511,285.548z
	"/>
<path style="fill:#FF5050;" d="M413.213,329.449c57.024-25.551,93.406-82.435,92.688-144.919
	c-0.48-41.697-17.293-80.815-47.342-110.147c-30.076-29.358-69.624-45.22-111.381-44.706
	c-85.719,1.085-154.686,70.806-154.686,156.697c0,36.228,12.654,71.562,35.62,99.477c34.658,45.503,78.303,76.207,129.723,91.258
	c27.281,7.986,51.753,9.922,69.07,9.922c9.076,0,16.188-0.532,20.706-1.005c1.565-0.163,2.852-1.131,3.446-2.59
	c0.596-1.465,0.349-3.065-0.662-4.28l-38.07-45.802c-0.511-0.614-0.7-1.415-0.52-2.193
	C411.983,330.395,412.496,329.77,413.213,329.449z"/>
<path style="fill:#E1A546;" d="M85.417,481.749c-2.94-0.307-4.341-3.778-2.451-6.052l38.07-45.802
	c1.273-1.533,0.751-3.87-1.068-4.686c-54.985-24.638-93.131-80.132-92.391-144.455c0.942-81.92,65.633-148.829,146.102-154.043
	c-2.626-0.165-5.264-0.283-7.924-0.316C79.763,125.31,8.528,194.763,7.539,280.756c-0.74,64.323,37.407,119.818,92.391,144.455
	c1.819,0.814,2.342,3.153,1.068,4.686l-38.07,45.802c-1.889,2.274-0.49,5.745,2.451,6.052c6.441,0.673,17.2,1.385,30.924,0.795
	C91.922,482.347,88.248,482.046,85.417,481.749z"/>
<path style="fill:#F24646;" d="M377.871,377.11c-51.42-15.052-95.065-45.755-129.723-91.258
	c-81.47-99.03-15.252-247.896,111.021-255.867c-3.972-0.251-7.972-0.357-11.992-0.308c-85.719,1.085-154.686,70.806-154.686,156.697
	c0,36.228,12.654,71.562,35.62,99.477c34.658,45.503,78.303,76.207,129.723,91.258c27.281,7.986,51.753,9.922,69.07,9.922
	c3.635,0,6.949-0.086,9.913-0.219C420.635,386.127,400.198,383.645,377.871,377.11z"/>
<path d="M389.9,147.42c0-17.546-14.106-32.673-39.825-32.673c-17.418,0-29.045,7.692-33.349,15.37
	c-3.922,6.989-2.125,12.348,0.967,14.5c3.841,2.679,8.948,3.223,11.503,0.097c3.934-4.803,5.483-6.655,9.57-9.087
	c6.275-3.729,30.642-4.736,30.642,14.5c0,15.063-15.78,21.489-23.102,30.546c-8.267,10.24-9.086,30.603-5.413,34.799
	c1.353,1.547,3.64,2.319,6.864,2.319c3.993,0,6.603-0.706,7.829-2.127c1.223-1.417,1.836-3.027,1.836-4.833
	c0-7.422,0.278-10.643,1.256-14.017C362.657,183.12,389.9,174.968,389.9,147.42z"/>
<path d="M347.948,231.712c-7.33,0-12.953,5.942-12.953,13.146c0,6.771,5.197,13.146,12.953,13.146c7.8,0,13.146-6.426,13.146-13.146
	C361.094,237.59,355.209,231.712,347.948,231.712z"/>
<path d="M90.467,276.421h70.294c4.15,0,7.514-3.364,7.514-7.514s-3.364-7.514-7.514-7.514H90.467c-4.15,0-7.514,3.364-7.514,7.514
	S86.317,276.421,90.467,276.421z"/>
<path d="M90.467,320.346h120.16c4.15,0,7.514-3.364,7.514-7.514c0-4.15-3.364-7.514-7.514-7.514H90.467
	c-4.15,0-7.514,3.364-7.514,7.514C82.953,316.982,86.317,320.346,90.467,320.346z"/>
<path d="M90.467,232.495h70.294c4.15,0,7.514-3.364,7.514-7.514s-3.364-7.514-7.514-7.514H90.467c-4.15,0-7.514,3.364-7.514,7.514
	S86.317,232.495,90.467,232.495z"/>
<path d="M90.467,364.272h120.16c4.15,0,7.514-3.364,7.514-7.514c0-4.15-3.364-7.514-7.514-7.514H90.467
	c-4.15,0-7.514,3.364-7.514,7.514C82.953,360.908,86.317,364.272,90.467,364.272z"/>
<path d="M505.29,195.333c-4.123-0.444-7.83,2.542-8.274,6.667c-5.622,52.261-38.996,98.114-87.095,119.665
	c-6.358,2.848-8.233,10.981-3.774,16.345l33.396,40.18c-75.738,4.824-151.931-27.897-205.07-97.664
	c-0.057-0.075-0.115-0.148-0.174-0.221c-9.537-11.593-17.201-24.531-22.804-38.297C171.322,143.31,245.278,37.21,349.197,37.21
	c75.574,0,138.889,56.174,147.678,131.401c0.481,4.123,4.22,7.074,8.334,6.591c4.122-0.481,7.073-4.213,6.591-8.334
	c-4.659-39.883-23.95-76.643-54.32-103.509C392.587,5.95,294.128,8.692,232.726,70.832c-14.826,15.004-26.4,32.384-34.39,51.266
	c-10.66-2.296-21.561-3.544-32.5-3.683C75.657,117.249,1.049,189.947,0.011,280.201c-0.728,63.301,34.995,121.102,91.485,148.887
	l-34.36,41.339c-5.738,6.904-1.426,17.4,7.45,18.328c5.097,0.532,12.479,1.064,21.641,1.064c24.353,0,61.253-3.757,101.04-21.235
	c3.799-1.669,5.527-6.102,3.858-9.901c-1.669-3.8-6.104-5.527-9.901-3.858c-45.476,19.976-86.804,20.895-107.853,19.58
	l33.392-40.175c4.461-5.369,2.578-13.499-3.775-16.345c-54.11-24.245-88.633-78.221-87.95-137.51
	c0.941-81.77,68.548-147.995,150.607-146.932c9.225,0.117,18.422,1.089,27.438,2.896c-16.703,52.787-5.544,110.707,29.52,153.405
	c19.722,25.871,43.211,48.21,70.629,65.473c-4.249,7.514-9.149,14.658-14.621,21.31c-0.06,0.072-0.118,0.146-0.174,0.22
	c-19.381,25.445-41.964,46.352-67.125,62.141c-3.515,2.206-4.576,6.844-2.371,10.358c2.205,3.514,6.845,4.574,10.358,2.371
	c26.659-16.729,50.55-38.818,71.007-65.653c5.935-7.227,11.249-14.986,15.874-23.135c36.937,20.222,78.847,30.746,120.749,30.744
	c9.375,0,16.728-0.55,21.396-1.038c4.12-0.431,7.649-3.083,9.212-6.921c1.565-3.844,0.89-8.215-1.763-11.407l-34.361-41.341
	c50.074-24.657,84.563-73.664,90.544-129.259C512.401,199.482,509.416,195.777,505.29,195.333z"/>
<g>
</g>
<g>
</g>
<g>
</g>
<g>
</g>
<g>
</g>
<g>
</g>
<g>
</g>
<g>
</g>
<g>
</g>
<g>
</g>
<g>
</g>
<g>
</g>
<g>
</g>
<g>
</g>
<g>
</g>
</svg>
