<?xml version="1.0" encoding="iso-8859-1"?>
<!-- Generator: Adobe Illustrator 19.0.0, SVG Export Plug-In . SVG Version: 6.00 Build 0)  -->
<svg version="1.1" id="Capa_1" xmlns="http://www.w3.org/2000/svg" xmlns:xlink="http://www.w3.org/1999/xlink" x="0px" y="0px"
	 viewBox="0 0 511.999 511.999" style="enable-background:new 0 0 511.999 511.999;" xml:space="preserve">
<path style="fill:#E4EAF8;" d="M105.63,396.991c-15.473,0-28.133,12.66-28.133,28.133l0,0c0,0.168,0.01,0.333,0.013,0.5
	c-0.003,0.167-0.013,0.332-0.013,0.5l0,0c0,15.473,12.66,28.133,28.133,28.133c18.241,0,19.581,0,30.772,0h63.982
	c11.578,0,217.089,0,225.486,0c4.782,0,8.66-3.877,8.66-8.66v-1v-46.605v-1C423.023,396.991,118.548,396.991,105.63,396.991z"/>
<path style="fill:#D8DCE5;" d="M425.87,434.255c-8.4,0-213.89,0-225.486,0c-78.361,0-58.665,0-94.753,0
	c-12.143,0-22.549-7.797-26.467-18.632c-1.075,2.971-1.664,6.17-1.664,9.501l0,0c0,0.168,0.01,0.333,0.013,0.5
	c-0.003,0.167-0.013,0.332-0.013,0.5l0,0c0,15.473,12.66,28.133,28.133,28.133c18.241,0,19.581,0,30.772,0h63.982
	c11.578,0,217.089,0,225.486,0c4.782,0,8.66-3.877,8.66-8.66v-1v-19.001C434.53,430.378,430.653,434.255,425.87,434.255z"/>
<path style="fill:#707487;" d="M427.532,7.969H117.638l0,0c-22.168,0-40.139,17.971-40.139,40.139v378.015
	c0-15.473,12.66-28.133,28.133-28.133h12.007l0,0H434.53V14.967C434.53,11.102,431.397,7.969,427.532,7.969z"/>
<path style="fill:#5B5D6E;" d="M98.602,48.108c0-22.164,17.964-40.132,40.127-40.139h-21.092l0,0
	c-22.168,0-40.139,17.971-40.139,40.139v378.016c0-13.048,9.003-24.095,21.104-27.237V48.108z"/>
<path style="fill:#FFC850;" d="M232.104,268.084c7.665,5.593,12.067,14.624,12.067,24.113v7.191h48.175v-5.325
	c0-10.505,4.855-20.439,13.197-26.824c14.658-11.22,24.111-28.895,24.111-48.78c0-33.733-27.204-61.111-60.87-61.393
	c-33.964-0.284-61.92,27.429-61.92,61.393C206.863,238.851,216.805,256.918,232.104,268.084z"/>
<path style="fill:#E1A546;" d="M251.983,268.084c-15.3-11.165-25.241-29.233-25.241-49.624c0-30.426,22.439-55.818,51.529-60.578
	c-3.091-0.507-6.259-0.788-9.488-0.815c-33.964-0.284-61.92,27.429-61.92,61.393c0,20.391,9.942,38.459,25.241,49.624
	c7.665,5.593,12.066,14.624,12.066,24.113v7.191h19.879v-7.191C264.05,282.707,259.649,273.677,251.983,268.084z"/>
<path style="fill:#C3C8D1;" d="M248.379,319.826v17.28c0,6.687,5.471,12.158,12.158,12.158h15.441
	c6.686,0,12.158-5.471,12.158-12.158v-17.28H248.379z"/>
<path style="fill:#AFB5BC;" d="M268.258,337.105v-17.28H248.38v17.28c0,6.687,5.471,12.158,12.158,12.158h15.441
	c0.758,0,1.498-0.079,2.219-0.214C272.562,347.998,268.258,343.034,268.258,337.105z"/>
<path style="fill:#E4EAF8;" d="M292.098,322.826h-47.68c-6.6,0-12.001-5.4-12.001-12.001v-2.436c0-6.6,5.4-12.001,12.001-12.001
	h47.68c6.6,0,12.001,5.4,12.001,12.001v2.436C304.098,317.425,298.698,322.826,292.098,322.826z"/>
<path style="fill:#D8DCE5;" d="M292.098,309.607h-47.68c-4.662,0-8.715-2.7-10.7-6.609c-0.825,1.625-1.301,3.453-1.301,5.391v2.436
	c0,6.6,5.4,12.001,12.001,12.001h47.68c6.6,0,12.001-5.4,12.001-12.001v-2.436c0-1.938-0.476-3.766-1.301-5.391
	C300.814,306.906,296.761,309.607,292.098,309.607z"/>
<path style="fill:#FF5050;" d="M200.384,500.198V430.88c0-2.627-2.13-4.757-4.757-4.757h-54.468c-2.627,0-4.757,2.13-4.757,4.757
	v69.319c0,4.157,4.956,6.314,7.998,3.481l20.75-19.323c1.826-1.701,4.657-1.701,6.483,0l20.75,19.323
	C195.427,506.513,200.384,504.356,200.384,500.198z"/>
<path style="fill:#F24646;" d="M156.403,430.88c0-2.627,2.13-4.757,4.757-4.757h-20.001c-2.627,0-4.757,2.13-4.757,4.757v69.319
	c0,4.157,4.956,6.314,7.998,3.481l12.003-11.177V430.88z"/>
<path d="M380.296,70.036H168.378c-4.142,0-7.5,3.358-7.5,7.5s3.358,7.5,7.5,7.5h211.918c4.142,0,7.5-3.358,7.5-7.5
	S384.439,70.036,380.296,70.036z"/>
<path d="M387.797,116.974c0-4.142-3.358-7.5-7.5-7.5H168.378c-4.142,0-7.5,3.358-7.5,7.5s3.358,7.5,7.5,7.5h211.918
	C384.439,124.475,387.797,121.117,387.797,116.974z"/>
<path d="M310.086,272.726c17.192-13.16,27.052-33.11,27.052-54.735c0-37.672-30.643-68.578-68.308-68.893
	c-38.027-0.357-69.484,30.614-69.484,68.893c0,21.926,10.588,42.742,28.321,55.684l0,0c5.191,3.787,8.445,9.827,8.919,16.392
	c-6.87,3.019-11.686,9.882-11.686,17.855v2.436c0,9.543,6.895,17.492,15.962,19.163v7.117c0,10.84,8.818,19.658,19.658,19.658
	h15.441c10.84,0,19.658-8.818,19.658-19.658v-7.117c9.066-1.671,15.962-9.621,15.962-19.163v-2.436
	c0-7.906-4.737-14.714-11.516-17.772C300.982,283.285,304.577,276.943,310.086,272.726z M280.622,336.637
	c0,2.524-2.133,4.657-4.657,4.657h-15.441c-2.524,0-4.657-2.133-4.657-4.657v-6.779h24.756L280.622,336.637L280.622,336.637z
	 M296.584,310.356c0,2.439-2.061,4.5-4.5,4.5c-8.581,0-35.713,0-47.68,0c-2.439,0-4.5-2.061-4.5-4.5v-2.436
	c0-2.439,2.061-4.5,4.5-4.5h47.68c2.439,0,4.5,2.061,4.5,4.5V310.356z M300.968,260.814c-8.731,6.683-14.423,16.742-15.809,27.605
	h-9.415v-49.747h9.385c4.142,0,7.5-3.357,7.5-7.5s-3.358-7.5-7.5-7.5h-33.773c-4.142,0-7.5,3.357-7.5,7.5s3.358,7.5,7.5,7.5h9.386
	v49.747h-9.231c-0.938-10.718-6.396-20.585-15.001-26.862c-13.878-10.128-22.163-26.413-22.163-43.565
	c0-29.672,24.278-53.895,53.898-53.895c0.153,0,0.306,0.001,0.459,0.002c29.463,0.247,53.433,24.423,53.433,53.893
	C322.138,234.908,314.422,250.516,300.968,260.814z"/>
<path d="M434.515,216.258c4.142,0,7.5-3.357,7.5-7.5V14.499C442.016,6.504,435.513,0,427.518,0H117.623
	c-26.268,0-47.64,21.371-47.64,47.64v378.015c0,19.647,15.985,35.633,35.633,35.633h23.271v38.442
	c0,10.694,12.793,16.248,20.611,8.97l18.88-17.582l18.881,17.583c7.818,7.28,20.609,1.719,20.609-8.971v-38.442h77.2
	c4.142,0,7.5-3.357,7.5-7.5c0-4.143-3.358-7.5-7.5-7.5h-77.2v-15.875c0-6.759-5.498-12.258-12.257-12.258h-54.468
	c-6.758,0-12.258,5.498-12.258,12.258v15.875h-23.271c-11.377,0-20.632-9.255-20.632-20.632c0-0.711,0.036-1.414,0.107-2.106
	c1.059-10.391,9.861-18.525,20.526-18.525h321.399v40.105c0,0.64-0.521,1.159-1.16,1.159H320.071c-4.142,0-7.5,3.357-7.5,7.5
	c0,4.143,3.358,7.5,7.5,7.5h105.784c8.911,0,16.161-7.249,16.161-16.16c0-2.645,0-199.713,0-201.368c0-4.143-3.358-7.5-7.5-7.5
	c-4.142,0-7.5,3.357-7.5,7.5v146.261H105.616l0,0c-0.001,0-0.001,0-0.002,0c-7.186,0.001-14.447,2.19-20.63,6.596V47.64
	c0-8.718,3.395-16.915,9.56-23.079c6.165-6.164,14.361-9.56,23.079-9.56h309.392v193.756
	C427.015,212.9,430.373,216.258,434.515,216.258z M143.888,433.155h48.981c0,8.608,0,54.89,0,60.272L176.731,478.4
	c-4.685-4.364-12.023-4.362-16.707,0l-16.137,15.027C143.888,488.551,143.888,441.706,143.888,433.155z"/>
<g>
</g>
<g>
</g>
<g>
</g>
<g>
</g>
<g>
</g>
<g>
</g>
<g>
</g>
<g>
</g>
<g>
</g>
<g>
</g>
<g>
</g>
<g>
</g>
<g>
</g>
<g>
</g>
<g>
</g>
</svg>
